<?xml version='1.0' encoding='UTF-8'?>
<svg viewBox="-4 -2 32 32" xmlns="http://www.w3.org/2000/svg" xmlns:xlink="http://www.w3.org/1999/xlink">
  <g id="Layer_1" transform="translate(-4, -2)" style="enable-background:new 0 0 32 32">
    <g id="Report">
      <path d="M27, 4L24, 4L24, 26L8, 26L8, 4L5, 4C4.4, 4 4, 4.4 4, 5L4, 29C4, 29.6 4.4, 30 5, 30L27, 30C27.6, 30 28, 29.6 28, 29L28, 5C28, 4.4 27.6, 4 27, 4z" fill="#FFB115" class="Yellow" />
    </g>
  </g>
  <g id="Layer_1" transform="translate(-4, -2)" style="enable-background:new 0 0 32 32">
    <g id="Report">
      <path d="M20, 4L20, 3C20, 2.4 19.6, 2 19, 2L13, 2C12.4, 2 12, 2.4 12, 3L12, 4L10, 4L10, 8L13, 8L19, 8L22, 8L22, 4L20, 4z" fill="#727272" class="Black" />
    </g>
  </g>
  <g id="Layer_1" transform="translate(-4, -2)" style="enable-background:new 0 0 32 32">
    <g id="Report">
      <g class="st0">
        <rect x="10" y="20" width="12" height="2" rx="0" ry="0" fill="#727272" class="Black" />
      </g>
    </g>
  </g>
  <g id="Layer_1" transform="translate(-4, -2)" style="enable-background:new 0 0 32 32">
    <g id="Report">
      <g class="st0">
        <rect x="10" y="12" width="12" height="2" rx="0" ry="0" fill="#727272" class="Black" />
      </g>
    </g>
  </g>
  <g id="Layer_1" transform="translate(-4, -2)" style="enable-background:new 0 0 32 32">
    <g id="Report">
      <g class="st0">
        <rect x="10" y="16" width="12" height="2" rx="0" ry="0" fill="#727272" class="Black" />
      </g>
    </g>
  </g>
  <g id="Layer_1" transform="translate(12, 14)" style="enable-background:new 0 0 16 16">
    <g id="Settings">
      <path d="M16, 9L16, 7L13.5, 6.4C13.4, 6 13.2, 5.6 13, 5.2L14.5, 3.1L12.9, 1.5L10.8, 3C10.4, 2.8 10, 2.6 9.6, 2.5L9, 0L7, 0L6.4, 2.5C6, 2.6 5.6, 2.8 5.2, 3L3.2, 1.5L1.5, 3.2L3, 5.2C2.8, 5.6 2.6, 6 2.5, 6.4L0, 7L0, 9L2.5, 9.6C2.6, 10 2.8, 10.4 3, 10.8L1.5, 12.9L3.1, 14.5L5.2, 13C5.6, 13.2 6, 13.4 6.4, 13.5L7, 16L9, 16L9.6, 13.5C10, 13.4 10.4, 13.2 10.8, 13L12.9, 14.5L14.5, 12.9L13, 10.8C13.2, 10.4 13.4, 10 13.5, 9.6L16, 9z" fill="#1177D7" class="Blue" />
    </g>
  </g>
  <g id="Layer_1" transform="translate(12, 14)" style="enable-background:new 0 0 16 16">
    <g id="Settings">
      <circle cx="8" cy="8" r="2" fill="#FFFFFF" class="White" />
    </g>
  </g>
</svg>